<?xml version="1.0" standalone="no"?>
<!DOCTYPE svg PUBLIC "-//W3C//DTD SVG 20010904//EN"
 "http://www.w3.org/TR/2001/REC-SVG-20010904/DTD/svg10.dtd">
<svg version="1.0" xmlns="http://www.w3.org/2000/svg"
 width="700.000000pt" height="700.000000pt" viewBox="0 0 700.000000 700.000000"
 preserveAspectRatio="xMidYMid meet">
<metadata>
Created by potrace 1.11, written by Peter Selinger 2001-2013
</metadata>
<g transform="translate(0.000000,700.000000) scale(0.100000,-0.100000)"
fill="#000000" stroke="none">
<path d="M5267 4585 c-172 -21 -263 -37 -271 -46 -14 -15 -817 -1282 -833
-1314 -6 -11 -13 -60 -17 -110 -4 -49 -10 -114 -13 -142 l-6 -53 498 0 497 0
-6 -67 c-3 -38 -10 -153 -16 -258 -6 -104 -12 -205 -15 -222 l-4 -33 251 0
250 0 -6 103 c-3 56 -9 185 -12 285 l-7 184 142 -4 141 -3 5 30 c2 17 9 82 15
145 6 63 13 130 16 148 l5 33 -170 -7 -171 -7 0 54 c0 52 36 1085 43 1242 l4
77 -31 -1 c-17 -1 -147 -16 -289 -34z m-146 -1075 l4 -255 -293 -3 -292 -2 48
77 c27 43 154 249 283 457 l234 379 6 -199 c4 -109 8 -314 10 -454z"/>
<path d="M3200 3480 l0 -610 100 0 100 0 0 304 0 304 31 26 c97 82 226 86 276
10 16 -25 19 -60 23 -334 l5 -305 98 -3 97 -3 0 309 c0 358 -4 381 -75 460
-54 60 -109 82 -206 82 -77 0 -131 -17 -193 -60 -25 -16 -47 -30 -50 -30 -3 0
-6 104 -6 230 l0 230 -100 0 -100 0 0 -610z"/>
<path d="M40 3465 l0 -595 95 0 95 0 2 431 3 430 175 -327 c96 -180 186 -340
198 -356 21 -24 31 -28 76 -28 29 0 60 6 69 13 9 6 97 165 197 351 99 187 181
341 183 342 1 1 2 -190 2 -424 l0 -427 98 -3 97 -3 -2 593 -3 593 -97 3 c-88
2 -98 1 -121 -20 -22 -20 -350 -624 -400 -736 l-19 -44 -88 168 c-215 412
-327 609 -351 621 -14 7 -63 13 -116 13 l-93 0 0 -595z"/>
<path d="M5980 3657 c0 -340 3 -412 16 -458 67 -228 249 -350 504 -336 239 13
397 146 445 374 11 52 15 155 15 446 l0 377 -109 0 -110 0 -3 -402 c-3 -399
-3 -403 -27 -455 -48 -107 -140 -159 -266 -151 -89 6 -153 40 -196 103 -51 74
-52 85 -56 508 l-5 397 -104 0 -104 0 0 -403z"/>
<path d="M1763 3705 c-180 -56 -284 -224 -270 -435 10 -149 66 -263 163 -333
77 -56 134 -72 254 -72 119 0 183 17 265 70 77 49 79 54 42 102 -18 24 -40 45
-51 49 -11 4 -49 -8 -98 -31 -67 -32 -91 -38 -147 -38 -69 0 -129 22 -163 60
-24 27 -56 101 -64 151 l-7 42 277 0 276 0 11 28 c15 37 3 139 -23 210 -29 78
-112 161 -191 191 -68 25 -205 28 -274 6z m204 -136 c56 -21 94 -72 107 -141
l7 -38 -195 0 -195 0 13 44 c19 63 53 105 100 127 46 21 120 25 163 8z"/>
<path d="M2622 3700 c-101 -36 -184 -118 -223 -220 -27 -70 -37 -228 -19 -308
30 -137 126 -251 244 -290 143 -47 326 -10 417 84 l32 33 -37 46 c-21 25 -45
45 -55 45 -9 0 -35 -13 -57 -29 -95 -69 -194 -67 -274 5 -54 49 -75 114 -74
234 0 76 4 105 22 145 29 63 48 83 97 106 63 29 142 25 210 -11 31 -16 63 -30
70 -30 15 0 85 81 85 98 0 18 -102 81 -155 98 -70 21 -217 18 -283 -6z"/>
</g>
</svg>
